<?xml version="1.0" encoding="UTF-8" standalone="no"?>
<!DOCTYPE svg PUBLIC "-//W3C//DTD SVG 1.1//EN"
 "http://www.w3.org/Graphics/SVG/1.1/DTD/svg11.dtd">
<!-- Generated by graphviz version 2.43.0 (0)
 -->
<!-- Title: paralsub Pages: 1 -->
<svg width="1249pt" height="601pt"
 viewBox="0.00 0.00 1248.62 601.00" xmlns="http://www.w3.org/2000/svg" xmlns:xlink="http://www.w3.org/1999/xlink">
<g id="graph0" class="graph" transform="scale(1 1) rotate(0) translate(4 597)">
<title>paralsub</title>
<polygon fill="white" stroke="transparent" points="-4,4 -4,-597 1244.62,-597 1244.62,4 -4,4"/>
<text text-anchor="middle" x="620.31" y="-7.8" font-family="Times,serif" font-size="14.00">paralsub</text>
<!-- n1 -->
<g id="node1" class="node">
<title>n1</title>
<polygon fill="none" stroke="black" points="286.17,-463.04 286.17,-477.96 270.35,-488.5 247.99,-488.5 232.17,-477.96 232.17,-463.04 247.99,-452.5 270.35,-452.5 286.17,-463.04"/>
<text text-anchor="middle" x="259.17" y="-466.8" font-family="Times,serif" font-size="14.00">a</text>
</g>
<!-- x0 -->
<g id="node10" class="node">
<title>x0</title>
<path fill="none" stroke="black" d="M339.34,-386.5C339.34,-386.5 390.34,-386.5 390.34,-386.5 396.34,-386.5 402.34,-392.5 402.34,-398.5 402.34,-398.5 402.34,-410.5 402.34,-410.5 402.34,-416.5 396.34,-422.5 390.34,-422.5 390.34,-422.5 339.34,-422.5 339.34,-422.5 333.34,-422.5 327.34,-416.5 327.34,-410.5 327.34,-410.5 327.34,-398.5 327.34,-398.5 327.34,-392.5 333.34,-386.5 339.34,-386.5"/>
<text text-anchor="middle" x="364.84" y="-400.8" font-family="Times,serif" font-size="14.00">0:0 &#45; 0:0</text>
</g>
<!-- n1&#45;&gt;x0 -->
<g id="edge19" class="edge">
<title>n1:e&#45;&gt;x0:w</title>
<path fill="none" stroke="black" d="M287.17,-470.5C317.49,-470.5 298.82,-419.06 317.66,-407.01"/>
<polygon fill="black" stroke="black" points="318.54,-410.39 327.34,-404.5 316.78,-403.62 318.54,-410.39"/>
</g>
<!-- x5 -->
<g id="node15" class="node">
<title>x5</title>
<path fill="none" stroke="black" d="M470.34,-469.5C470.34,-469.5 521.34,-469.5 521.34,-469.5 527.34,-469.5 533.34,-475.5 533.34,-481.5 533.34,-481.5 533.34,-493.5 533.34,-493.5 533.34,-499.5 527.34,-505.5 521.34,-505.5 521.34,-505.5 470.34,-505.5 470.34,-505.5 464.34,-505.5 458.34,-499.5 458.34,-493.5 458.34,-493.5 458.34,-481.5 458.34,-481.5 458.34,-475.5 464.34,-469.5 470.34,-469.5"/>
<text text-anchor="middle" x="495.84" y="-483.8" font-family="Times,serif" font-size="14.00">1:1 &#45; 0:0</text>
</g>
<!-- n1&#45;&gt;x5 -->
<g id="edge22" class="edge">
<title>n1:e&#45;&gt;x5:w</title>
<path fill="none" stroke="black" d="M287.17,-470.5C359.4,-470.5 379.23,-485.94 446.55,-487.39"/>
<polygon fill="black" stroke="black" points="446.8,-490.89 456.84,-487.5 446.88,-483.89 446.8,-490.89"/>
</g>
<!-- x10 -->
<g id="node21" class="node">
<title>x10</title>
<path fill="none" stroke="black" d="M470.34,-402.5C470.34,-402.5 521.34,-402.5 521.34,-402.5 527.34,-402.5 533.34,-408.5 533.34,-414.5 533.34,-414.5 533.34,-426.5 533.34,-426.5 533.34,-432.5 527.34,-438.5 521.34,-438.5 521.34,-438.5 470.34,-438.5 470.34,-438.5 464.34,-438.5 458.34,-432.5 458.34,-426.5 458.34,-426.5 458.34,-414.5 458.34,-414.5 458.34,-408.5 464.34,-402.5 470.34,-402.5"/>
<text text-anchor="middle" x="495.84" y="-416.8" font-family="Times,serif" font-size="14.00">2:2 &#45; 0:0</text>
</g>
<!-- n1&#45;&gt;x10 -->
<g id="edge20" class="edge">
<title>n1:e&#45;&gt;x10:w</title>
<path fill="none" stroke="black" d="M287.17,-470.5C323.41,-470.5 403.62,-428.01 446.73,-421.37"/>
<polygon fill="black" stroke="black" points="447.18,-424.84 456.84,-420.5 446.58,-417.87 447.18,-424.84"/>
</g>
<!-- x15 -->
<g id="node27" class="node">
<title>x15</title>
<path fill="none" stroke="black" d="M712.34,-556.5C712.34,-556.5 763.34,-556.5 763.34,-556.5 769.34,-556.5 775.34,-562.5 775.34,-568.5 775.34,-568.5 775.34,-580.5 775.34,-580.5 775.34,-586.5 769.34,-592.5 763.34,-592.5 763.34,-592.5 712.34,-592.5 712.34,-592.5 706.34,-592.5 700.34,-586.5 700.34,-580.5 700.34,-580.5 700.34,-568.5 700.34,-568.5 700.34,-562.5 706.34,-556.5 712.34,-556.5"/>
<text text-anchor="middle" x="737.84" y="-570.8" font-family="Times,serif" font-size="14.00">3:3 &#45; 0:0</text>
</g>
<!-- n1&#45;&gt;x15 -->
<g id="edge21" class="edge">
<title>n1:e&#45;&gt;x15:w</title>
<path fill="none" stroke="black" d="M287.17,-470.5C307.32,-470.5 308.53,-484.29 327.34,-491.5 439.57,-534.52 471.47,-535 589.34,-558.5 634.69,-567.54 648.53,-573.58 690.1,-574.4"/>
<polygon fill="black" stroke="black" points="690.31,-577.91 700.34,-574.5 690.37,-570.91 690.31,-577.91"/>
</g>
<!-- n2 -->
<g id="node2" class="node">
<title>n2</title>
<polygon fill="none" stroke="black" points="54,-280.04 54,-294.96 38.18,-305.5 15.82,-305.5 0,-294.96 0,-280.04 15.82,-269.5 38.18,-269.5 54,-280.04"/>
<text text-anchor="middle" x="27" y="-283.8" font-family="Times,serif" font-size="14.00">b</text>
</g>
<!-- c9 -->
<g id="node7" class="node">
<title>c9</title>
<polygon fill="none" stroke="black" points="90,-268.5 90,-306.5 191,-306.5 191,-268.5 90,-268.5"/>
<text text-anchor="middle" x="103" y="-283.8" font-family="Times,serif" font-size="14.00">A</text>
<polyline fill="none" stroke="black" points="116,-268.5 116,-306.5 "/>
<text text-anchor="middle" x="140.5" y="-291.3" font-family="Times,serif" font-size="14.00">$1</text>
<text text-anchor="middle" x="140.5" y="-276.3" font-family="Times,serif" font-size="14.00">$not</text>
<polyline fill="none" stroke="black" points="165,-268.5 165,-306.5 "/>
<text text-anchor="middle" x="178" y="-283.8" font-family="Times,serif" font-size="14.00">Y</text>
</g>
<!-- n2&#45;&gt;c9 -->
<g id="edge23" class="edge">
<title>n2:e&#45;&gt;c9:w</title>
<path fill="none" stroke="black" stroke-width="3" d="M54,-287.5C66,-287.5 71.25,-287.5 79.88,-287.5"/>
<polygon fill="black" stroke="black" stroke-width="3" points="80,-291 90,-287.5 80,-284 80,-291"/>
</g>
<!-- n3 -->
<g id="node3" class="node">
<title>n3</title>
<polygon fill="none" stroke="black" points="1139.53,-481.04 1139.53,-495.96 1122.72,-506.5 1098.96,-506.5 1082.15,-495.96 1082.15,-481.04 1098.96,-470.5 1122.72,-470.5 1139.53,-481.04"/>
<text text-anchor="middle" x="1110.84" y="-484.8" font-family="Times,serif" font-size="14.00">bor</text>
</g>
<!-- n4 -->
<g id="node4" class="node">
<title>n4</title>
<polygon fill="none" stroke="black" points="737.84,-276.5 702.98,-258.5 737.84,-240.5 772.7,-258.5 737.84,-276.5"/>
<text text-anchor="middle" x="737.84" y="-254.8" font-family="Times,serif" font-size="14.00">bw</text>
</g>
<!-- x8 -->
<g id="node18" class="node">
<title>x8</title>
<path fill="none" stroke="black" d="M823.34,-287.5C823.34,-287.5 874.34,-287.5 874.34,-287.5 880.34,-287.5 886.34,-293.5 886.34,-299.5 886.34,-299.5 886.34,-311.5 886.34,-311.5 886.34,-317.5 880.34,-323.5 874.34,-323.5 874.34,-323.5 823.34,-323.5 823.34,-323.5 817.34,-323.5 811.34,-317.5 811.34,-311.5 811.34,-311.5 811.34,-299.5 811.34,-299.5 811.34,-293.5 817.34,-287.5 823.34,-287.5"/>
<text text-anchor="middle" x="848.84" y="-301.8" font-family="Times,serif" font-size="14.00">0:0 &#45; 0:0</text>
</g>
<!-- n4&#45;&gt;x8 -->
<g id="edge30" class="edge">
<title>n4:e&#45;&gt;x8:w</title>
<path fill="none" stroke="black" d="M773.84,-258.5C796.39,-258.5 788.56,-291.96 801.61,-302.42"/>
<polygon fill="black" stroke="black" points="800.75,-305.81 811.34,-305.5 802.87,-299.14 800.75,-305.81"/>
</g>
<!-- x13 -->
<g id="node24" class="node">
<title>x13</title>
<path fill="none" stroke="black" d="M823.34,-155.5C823.34,-155.5 874.34,-155.5 874.34,-155.5 880.34,-155.5 886.34,-161.5 886.34,-167.5 886.34,-167.5 886.34,-179.5 886.34,-179.5 886.34,-185.5 880.34,-191.5 874.34,-191.5 874.34,-191.5 823.34,-191.5 823.34,-191.5 817.34,-191.5 811.34,-185.5 811.34,-179.5 811.34,-179.5 811.34,-167.5 811.34,-167.5 811.34,-161.5 817.34,-155.5 823.34,-155.5"/>
<text text-anchor="middle" x="848.84" y="-169.8" font-family="Times,serif" font-size="14.00">1:1 &#45; 0:0</text>
</g>
<!-- n4&#45;&gt;x13 -->
<g id="edge28" class="edge">
<title>n4:e&#45;&gt;x13:w</title>
<path fill="none" stroke="black" d="M773.84,-258.5C811.1,-258.5 778.03,-189.29 801.55,-175.77"/>
<polygon fill="black" stroke="black" points="802.39,-179.17 811.34,-173.5 800.81,-172.35 802.39,-179.17"/>
</g>
<!-- x17 -->
<g id="node29" class="node">
<title>x17</title>
<path fill="none" stroke="black" d="M823.34,-342.5C823.34,-342.5 874.34,-342.5 874.34,-342.5 880.34,-342.5 886.34,-348.5 886.34,-354.5 886.34,-354.5 886.34,-366.5 886.34,-366.5 886.34,-372.5 880.34,-378.5 874.34,-378.5 874.34,-378.5 823.34,-378.5 823.34,-378.5 817.34,-378.5 811.34,-372.5 811.34,-366.5 811.34,-366.5 811.34,-354.5 811.34,-354.5 811.34,-348.5 817.34,-342.5 823.34,-342.5"/>
<text text-anchor="middle" x="848.84" y="-356.8" font-family="Times,serif" font-size="14.00">2:2 &#45; 0:0</text>
</g>
<!-- n4&#45;&gt;x17 -->
<g id="edge29" class="edge">
<title>n4:e&#45;&gt;x17:w</title>
<path fill="none" stroke="black" d="M773.84,-258.5C818.18,-258.5 772.01,-344.45 801.5,-358.55"/>
<polygon fill="black" stroke="black" points="800.85,-361.99 811.34,-360.5 802.21,-355.13 800.85,-361.99"/>
</g>
<!-- n5 -->
<g id="node5" class="node">
<title>n5</title>
<polygon fill="none" stroke="black" points="1240.76,-221.04 1240.76,-235.96 1224.19,-246.5 1200.77,-246.5 1184.2,-235.96 1184.2,-221.04 1200.77,-210.5 1224.19,-210.5 1240.76,-221.04"/>
<text text-anchor="middle" x="1212.48" y="-224.8" font-family="Times,serif" font-size="14.00">diff</text>
</g>
<!-- n6 -->
<g id="node6" class="node">
<title>n6</title>
<polygon fill="none" stroke="black" points="259.17,-305.5 226.83,-287.5 259.17,-269.5 291.51,-287.5 259.17,-305.5"/>
<text text-anchor="middle" x="259.17" y="-283.8" font-family="Times,serif" font-size="14.00">nb</text>
</g>
<!-- x1 -->
<g id="node11" class="node">
<title>x1</title>
<path fill="none" stroke="black" d="M339.34,-245.5C339.34,-245.5 390.34,-245.5 390.34,-245.5 396.34,-245.5 402.34,-251.5 402.34,-257.5 402.34,-257.5 402.34,-269.5 402.34,-269.5 402.34,-275.5 396.34,-281.5 390.34,-281.5 390.34,-281.5 339.34,-281.5 339.34,-281.5 333.34,-281.5 327.34,-275.5 327.34,-269.5 327.34,-269.5 327.34,-257.5 327.34,-257.5 327.34,-251.5 333.34,-245.5 339.34,-245.5"/>
<text text-anchor="middle" x="364.84" y="-259.8" font-family="Times,serif" font-size="14.00">0:0 &#45; 0:0</text>
</g>
<!-- n6&#45;&gt;x1 -->
<g id="edge38" class="edge">
<title>n6:e&#45;&gt;x1:w</title>
<path fill="none" stroke="black" d="M291.34,-287.5C306.51,-287.5 308.18,-272.56 317.66,-266.25"/>
<polygon fill="black" stroke="black" points="318.68,-269.6 327.34,-263.5 316.76,-262.87 318.68,-269.6"/>
</g>
<!-- x6 -->
<g id="node16" class="node">
<title>x6</title>
<path fill="none" stroke="black" d="M470.34,-292.5C470.34,-292.5 521.34,-292.5 521.34,-292.5 527.34,-292.5 533.34,-298.5 533.34,-304.5 533.34,-304.5 533.34,-316.5 533.34,-316.5 533.34,-322.5 527.34,-328.5 521.34,-328.5 521.34,-328.5 470.34,-328.5 470.34,-328.5 464.34,-328.5 458.34,-322.5 458.34,-316.5 458.34,-316.5 458.34,-304.5 458.34,-304.5 458.34,-298.5 464.34,-292.5 470.34,-292.5"/>
<text text-anchor="middle" x="495.84" y="-306.8" font-family="Times,serif" font-size="14.00">1:1 &#45; 0:0</text>
</g>
<!-- n6&#45;&gt;x6 -->
<g id="edge39" class="edge">
<title>n6:e&#45;&gt;x6:w</title>
<path fill="none" stroke="black" d="M291.34,-287.5C325.43,-287.5 405.11,-306.88 446.67,-310.06"/>
<polygon fill="black" stroke="black" points="446.7,-313.57 456.84,-310.5 447,-306.57 446.7,-313.57"/>
</g>
<!-- x11 -->
<g id="node22" class="node">
<title>x11</title>
<path fill="none" stroke="black" d="M712.34,-23.5C712.34,-23.5 763.34,-23.5 763.34,-23.5 769.34,-23.5 775.34,-29.5 775.34,-35.5 775.34,-35.5 775.34,-47.5 775.34,-47.5 775.34,-53.5 769.34,-59.5 763.34,-59.5 763.34,-59.5 712.34,-59.5 712.34,-59.5 706.34,-59.5 700.34,-53.5 700.34,-47.5 700.34,-47.5 700.34,-35.5 700.34,-35.5 700.34,-29.5 706.34,-23.5 712.34,-23.5"/>
<text text-anchor="middle" x="737.84" y="-37.8" font-family="Times,serif" font-size="14.00">2:2 &#45; 0:0</text>
</g>
<!-- n6&#45;&gt;x11 -->
<g id="edge36" class="edge">
<title>n6:e&#45;&gt;x11:w</title>
<path fill="none" stroke="black" d="M291.34,-287.5C341.09,-287.5 292.72,-217.23 327.34,-181.5 448.2,-56.75 520.48,-42.03 690.34,-41.51"/>
<polygon fill="black" stroke="black" points="690.35,-45.01 700.34,-41.5 690.34,-38.01 690.35,-45.01"/>
</g>
<!-- x16 -->
<g id="node28" class="node">
<title>x16</title>
<path fill="none" stroke="black" d="M601.34,-512.5C601.34,-512.5 652.34,-512.5 652.34,-512.5 658.34,-512.5 664.34,-518.5 664.34,-524.5 664.34,-524.5 664.34,-536.5 664.34,-536.5 664.34,-542.5 658.34,-548.5 652.34,-548.5 652.34,-548.5 601.34,-548.5 601.34,-548.5 595.34,-548.5 589.34,-542.5 589.34,-536.5 589.34,-536.5 589.34,-524.5 589.34,-524.5 589.34,-518.5 595.34,-512.5 601.34,-512.5"/>
<text text-anchor="middle" x="626.84" y="-526.8" font-family="Times,serif" font-size="14.00">3:3 &#45; 0:0</text>
</g>
<!-- n6&#45;&gt;x16 -->
<g id="edge37" class="edge">
<title>n6:e&#45;&gt;x16:w</title>
<path fill="none" stroke="black" d="M291.34,-287.5C310.82,-287.5 310.01,-303.62 327.34,-312.5 422.16,-361.1 481.27,-314.02 553.34,-392.5 593.62,-436.36 534.05,-519.61 579.24,-529.53"/>
<polygon fill="black" stroke="black" points="579.05,-533.02 589.34,-530.5 579.72,-526.06 579.05,-533.02"/>
</g>
<!-- c9&#45;&gt;n6 -->
<g id="edge35" class="edge">
<title>c9:e&#45;&gt;n6:w</title>
<path fill="none" stroke="black" stroke-width="3" d="M191,-287.5C203,-287.5 208.25,-287.5 216.88,-287.5"/>
<polygon fill="black" stroke="black" stroke-width="3" points="217,-291 227,-287.5 217,-284 217,-291"/>
</g>
<!-- v3 -->
<g id="node8" class="node">
<title>v3</title>
<ellipse fill="none" stroke="black" cx="364.84" cy="-208.5" rx="27" ry="18"/>
<text text-anchor="middle" x="364.84" y="-204.8" font-family="Times,serif" font-size="14.00">1&#39;1</text>
</g>
<!-- c11 -->
<g id="node9" class="node">
<title>c11</title>
<polygon fill="none" stroke="black" points="438.34,-204 438.34,-273 553.34,-273 553.34,-204 438.34,-204"/>
<text text-anchor="middle" x="451.34" y="-257.8" font-family="Times,serif" font-size="14.00">a</text>
<polyline fill="none" stroke="black" points="438.34,-250 464.34,-250 "/>
<text text-anchor="middle" x="451.34" y="-234.8" font-family="Times,serif" font-size="14.00">b</text>
<polyline fill="none" stroke="black" points="438.34,-227 464.34,-227 "/>
<text text-anchor="middle" x="451.34" y="-211.8" font-family="Times,serif" font-size="14.00">c</text>
<polyline fill="none" stroke="black" points="464.34,-204 464.34,-273 "/>
<text text-anchor="middle" x="488.34" y="-242.3" font-family="Times,serif" font-size="14.00">s1</text>
<text text-anchor="middle" x="488.34" y="-227.3" font-family="Times,serif" font-size="14.00">subt</text>
<polyline fill="none" stroke="black" points="512.34,-204 512.34,-273 "/>
<text text-anchor="middle" x="532.84" y="-252.3" font-family="Times,serif" font-size="14.00">bor</text>
<polyline fill="none" stroke="black" points="512.34,-239 553.34,-239 "/>
<text text-anchor="middle" x="532.84" y="-217.8" font-family="Times,serif" font-size="14.00">diff</text>
</g>
<!-- v3&#45;&gt;c11 -->
<g id="edge40" class="edge">
<title>v3:e&#45;&gt;c11:w</title>
<path fill="none" stroke="black" d="M392.84,-208.5C409.46,-208.5 415.61,-213.12 428.3,-214.85"/>
<polygon fill="black" stroke="black" points="428.14,-218.35 438.34,-215.5 428.59,-211.37 428.14,-218.35"/>
</g>
<!-- x2 -->
<g id="node12" class="node">
<title>x2</title>
<path fill="none" stroke="black" d="M601.34,-239.5C601.34,-239.5 652.34,-239.5 652.34,-239.5 658.34,-239.5 664.34,-245.5 664.34,-251.5 664.34,-251.5 664.34,-263.5 664.34,-263.5 664.34,-269.5 658.34,-275.5 652.34,-275.5 652.34,-275.5 601.34,-275.5 601.34,-275.5 595.34,-275.5 589.34,-269.5 589.34,-263.5 589.34,-263.5 589.34,-251.5 589.34,-251.5 589.34,-245.5 595.34,-239.5 601.34,-239.5"/>
<text text-anchor="middle" x="626.84" y="-253.8" font-family="Times,serif" font-size="14.00">0:0 &#45; 0:0</text>
</g>
<!-- c11&#45;&gt;x2 -->
<g id="edge3" class="edge">
<title>c11:e&#45;&gt;x2:w</title>
<path fill="none" stroke="black" d="M565.56,-256.73C569.64,-256.89 573.07,-257.11 577.15,-257.27"/>
<polygon fill="none" stroke="black" points="565.34,-256.73 559.26,-260.61 553.34,-256.5 559.42,-252.61 565.34,-256.73"/>
<polygon fill="none" stroke="black" points="577.34,-257.27 583.42,-253.39 589.34,-257.5 583.27,-261.39 577.34,-257.27"/>
</g>
<!-- x4 -->
<g id="node13" class="node">
<title>x4</title>
<path fill="none" stroke="black" d="M601.34,-155.5C601.34,-155.5 652.34,-155.5 652.34,-155.5 658.34,-155.5 664.34,-161.5 664.34,-167.5 664.34,-167.5 664.34,-179.5 664.34,-179.5 664.34,-185.5 658.34,-191.5 652.34,-191.5 652.34,-191.5 601.34,-191.5 601.34,-191.5 595.34,-191.5 589.34,-185.5 589.34,-179.5 589.34,-179.5 589.34,-167.5 589.34,-167.5 589.34,-161.5 595.34,-155.5 601.34,-155.5"/>
<text text-anchor="middle" x="626.84" y="-169.8" font-family="Times,serif" font-size="14.00">0:0 &#45; 0:0</text>
</g>
<!-- c11&#45;&gt;x4 -->
<g id="edge4" class="edge">
<title>c11:e&#45;&gt;x4:w</title>
<path fill="none" stroke="black" d="M564.59,-216.72C572.41,-207.52 570.27,-187.44 578.11,-178.26"/>
<polygon fill="none" stroke="black" points="564.39,-216.81 560.43,-222.84 553.34,-221.5 557.3,-215.47 564.39,-216.81"/>
<polygon fill="none" stroke="black" points="578.29,-178.18 582.26,-172.16 589.34,-173.5 585.38,-179.52 578.29,-178.18"/>
</g>
<!-- x0&#45;&gt;c11 -->
<g id="edge1" class="edge">
<title>x0:e&#45;&gt;c11:w</title>
<path fill="none" stroke="black" d="M414.15,-402.37C451.79,-385.97 388.92,-280.09 426.5,-263.64"/>
<polygon fill="none" stroke="black" points="414.15,-402.37 408.96,-407.37 402.34,-404.5 407.54,-399.5 414.15,-402.37"/>
<polygon fill="none" stroke="black" points="426.53,-263.64 431.72,-258.63 438.34,-261.5 433.15,-266.51 426.53,-263.64"/>
</g>
<!-- x1&#45;&gt;c11 -->
<g id="edge2" class="edge">
<title>x1:e&#45;&gt;c11:w</title>
<path fill="none" stroke="black" d="M413.96,-259.15C419,-254.56 421.72,-247.37 426.78,-242.8"/>
<polygon fill="none" stroke="black" points="413.58,-259.29 409.36,-265.14 402.34,-263.5 406.55,-257.65 413.58,-259.29"/>
<polygon fill="none" stroke="black" points="427.1,-242.69 431.32,-236.85 438.34,-238.5 434.11,-244.34 427.1,-242.69"/>
</g>
<!-- x2&#45;&gt;n4 -->
<g id="edge26" class="edge">
<title>x2:e&#45;&gt;n4:w</title>
<path fill="none" stroke="black" d="M664.34,-257.5C676.98,-257.5 682.42,-258.07 691.57,-258.35"/>
<polygon fill="black" stroke="black" points="691.79,-261.86 701.84,-258.5 691.89,-254.86 691.79,-261.86"/>
</g>
<!-- x4&#45;&gt;n5 -->
<g id="edge33" class="edge">
<title>x4:e&#45;&gt;n5:w</title>
<path fill="none" stroke="black" d="M664.34,-173.5C754.22,-173.5 757.96,-88.5 847.84,-88.5 847.84,-88.5 847.84,-88.5 980.84,-88.5 1056.32,-88.5 1091.24,-67.15 1148.34,-116.5 1184.96,-148.15 1139.82,-217.19 1174.4,-227.26"/>
<polygon fill="black" stroke="black" points="1173.99,-230.74 1184.34,-228.5 1174.85,-223.79 1173.99,-230.74"/>
</g>
<!-- c12 -->
<g id="node14" class="node">
<title>c12</title>
<polygon fill="none" stroke="black" points="922.34,-296 922.34,-365 1037.34,-365 1037.34,-296 922.34,-296"/>
<text text-anchor="middle" x="935.34" y="-349.8" font-family="Times,serif" font-size="14.00">a</text>
<polyline fill="none" stroke="black" points="922.34,-342 948.34,-342 "/>
<text text-anchor="middle" x="935.34" y="-326.8" font-family="Times,serif" font-size="14.00">b</text>
<polyline fill="none" stroke="black" points="922.34,-319 948.34,-319 "/>
<text text-anchor="middle" x="935.34" y="-303.8" font-family="Times,serif" font-size="14.00">c</text>
<polyline fill="none" stroke="black" points="948.34,-296 948.34,-365 "/>
<text text-anchor="middle" x="972.34" y="-334.3" font-family="Times,serif" font-size="14.00">s2</text>
<text text-anchor="middle" x="972.34" y="-319.3" font-family="Times,serif" font-size="14.00">subt</text>
<polyline fill="none" stroke="black" points="996.34,-296 996.34,-365 "/>
<text text-anchor="middle" x="1016.84" y="-344.3" font-family="Times,serif" font-size="14.00">bor</text>
<polyline fill="none" stroke="black" points="996.34,-331 1037.34,-331 "/>
<text text-anchor="middle" x="1016.84" y="-309.8" font-family="Times,serif" font-size="14.00">diff</text>
</g>
<!-- x7 -->
<g id="node17" class="node">
<title>x7</title>
<path fill="none" stroke="black" d="M1085.34,-240.5C1085.34,-240.5 1136.34,-240.5 1136.34,-240.5 1142.34,-240.5 1148.34,-246.5 1148.34,-252.5 1148.34,-252.5 1148.34,-264.5 1148.34,-264.5 1148.34,-270.5 1142.34,-276.5 1136.34,-276.5 1136.34,-276.5 1085.34,-276.5 1085.34,-276.5 1079.34,-276.5 1073.34,-270.5 1073.34,-264.5 1073.34,-264.5 1073.34,-252.5 1073.34,-252.5 1073.34,-246.5 1079.34,-240.5 1085.34,-240.5"/>
<text text-anchor="middle" x="1110.84" y="-254.8" font-family="Times,serif" font-size="14.00">0:0 &#45; 1:1</text>
</g>
<!-- c12&#45;&gt;x7 -->
<g id="edge7" class="edge">
<title>c12:e&#45;&gt;x7:w</title>
<path fill="none" stroke="black" d="M1048.95,-345.08C1067.16,-330.83 1043.53,-276.18 1061.73,-261.92"/>
<polygon fill="none" stroke="black" points="1048.85,-345.11 1044.23,-350.64 1037.34,-348.5 1041.97,-342.97 1048.85,-345.11"/>
<polygon fill="none" stroke="black" points="1061.83,-261.89 1066.45,-256.36 1073.34,-258.5 1068.72,-264.03 1061.83,-261.89"/>
</g>
<!-- x9 -->
<g id="node19" class="node">
<title>x9</title>
<path fill="none" stroke="black" d="M1085.34,-295.5C1085.34,-295.5 1136.34,-295.5 1136.34,-295.5 1142.34,-295.5 1148.34,-301.5 1148.34,-307.5 1148.34,-307.5 1148.34,-319.5 1148.34,-319.5 1148.34,-325.5 1142.34,-331.5 1136.34,-331.5 1136.34,-331.5 1085.34,-331.5 1085.34,-331.5 1079.34,-331.5 1073.34,-325.5 1073.34,-319.5 1073.34,-319.5 1073.34,-307.5 1073.34,-307.5 1073.34,-301.5 1079.34,-295.5 1085.34,-295.5"/>
<text text-anchor="middle" x="1110.84" y="-309.8" font-family="Times,serif" font-size="14.00">0:0 &#45; 1:1</text>
</g>
<!-- c12&#45;&gt;x9 -->
<g id="edge9" class="edge">
<title>c12:e&#45;&gt;x9:w</title>
<path fill="none" stroke="black" d="M1049.56,-313.5C1053.63,-313.5 1057.08,-313.5 1061.16,-313.5"/>
<polygon fill="none" stroke="black" points="1049.34,-313.5 1043.34,-317.5 1037.34,-313.5 1043.34,-309.5 1049.34,-313.5"/>
<polygon fill="none" stroke="black" points="1061.34,-313.5 1067.34,-309.5 1073.34,-313.5 1067.34,-317.5 1061.34,-313.5"/>
</g>
<!-- x5&#45;&gt;c12 -->
<g id="edge5" class="edge">
<title>x5:e&#45;&gt;c12:w</title>
<path fill="none" stroke="black" d="M546.86,-487.52C698.2,-487.92 757.41,-494.76 886.34,-406.5 905.43,-393.43 898.47,-366.61 910.46,-357.01"/>
<polygon fill="none" stroke="black" points="546.84,-487.52 540.84,-491.51 534.84,-487.5 540.85,-483.51 546.84,-487.52"/>
<polygon fill="none" stroke="black" points="910.83,-356.9 915.45,-351.37 922.34,-353.5 917.72,-359.04 910.83,-356.9"/>
</g>
<!-- x6&#45;&gt;c12 -->
<g id="edge6" class="edge">
<title>x6:e&#45;&gt;c12:w</title>
<path fill="none" stroke="black" d="M546.85,-310.68C663.97,-314.31 689.02,-370.79 811.34,-387.5 844.37,-392.01 857.15,-403.59 886.34,-387.5 907.87,-375.64 898.14,-344.88 910.49,-334.21"/>
<polygon fill="none" stroke="black" points="546.84,-310.68 540.78,-314.59 534.84,-310.5 540.9,-306.59 546.84,-310.68"/>
<polygon fill="none" stroke="black" points="910.89,-334.09 915.42,-328.48 922.34,-330.5 917.81,-336.11 910.89,-334.09"/>
</g>
<!-- x7&#45;&gt;n4 -->
<g id="edge27" class="edge">
<title>x7:e&#45;&gt;n4:w</title>
<path fill="none" stroke="black" d="M1149.84,-258.5C1158.08,-258.5 1154.82,-271.34 1148.84,-277 1136.66,-288.54 1090.12,-277.01 1073.34,-277 1070.77,-277 704.71,-278.27 702.84,-276.5 700.48,-274.26 698.55,-270.87 697.63,-267.63"/>
<polygon fill="black" stroke="black" points="700.83,-269.05 701.84,-258.5 694.47,-266.11 700.83,-269.05"/>
</g>
<!-- x8&#45;&gt;c12 -->
<g id="edge8" class="edge">
<title>x8:e&#45;&gt;c12:w</title>
<path fill="none" stroke="black" d="M898.56,-305.96C902.64,-306.29 906.07,-306.72 910.15,-307.04"/>
<polygon fill="none" stroke="black" points="898.33,-305.96 892.18,-309.72 886.34,-305.5 892.49,-301.73 898.33,-305.96"/>
<polygon fill="none" stroke="black" points="910.35,-307.05 916.5,-303.28 922.34,-307.5 916.19,-311.27 910.35,-307.05"/>
</g>
<!-- x9&#45;&gt;n5 -->
<g id="edge34" class="edge">
<title>x9:e&#45;&gt;n5:w</title>
<path fill="none" stroke="black" d="M1148.34,-313.5C1185.2,-313.5 1151.77,-244.89 1174.35,-230.95"/>
<polygon fill="black" stroke="black" points="1175.46,-234.28 1184.34,-228.5 1173.79,-227.49 1175.46,-234.28"/>
</g>
<!-- c13 -->
<g id="node20" class="node">
<title>c13</title>
<polygon fill="none" stroke="black" points="922.34,-123 922.34,-192 1037.34,-192 1037.34,-123 922.34,-123"/>
<text text-anchor="middle" x="935.34" y="-176.8" font-family="Times,serif" font-size="14.00">a</text>
<polyline fill="none" stroke="black" points="922.34,-169 948.34,-169 "/>
<text text-anchor="middle" x="935.34" y="-153.8" font-family="Times,serif" font-size="14.00">b</text>
<polyline fill="none" stroke="black" points="922.34,-146 948.34,-146 "/>
<text text-anchor="middle" x="935.34" y="-130.8" font-family="Times,serif" font-size="14.00">c</text>
<polyline fill="none" stroke="black" points="948.34,-123 948.34,-192 "/>
<text text-anchor="middle" x="972.34" y="-161.3" font-family="Times,serif" font-size="14.00">s3</text>
<text text-anchor="middle" x="972.34" y="-146.3" font-family="Times,serif" font-size="14.00">subt</text>
<polyline fill="none" stroke="black" points="996.34,-123 996.34,-192 "/>
<text text-anchor="middle" x="1016.84" y="-171.3" font-family="Times,serif" font-size="14.00">bor</text>
<polyline fill="none" stroke="black" points="996.34,-158 1037.34,-158 "/>
<text text-anchor="middle" x="1016.84" y="-136.8" font-family="Times,serif" font-size="14.00">diff</text>
</g>
<!-- x12 -->
<g id="node23" class="node">
<title>x12</title>
<path fill="none" stroke="black" d="M1085.34,-183.5C1085.34,-183.5 1136.34,-183.5 1136.34,-183.5 1142.34,-183.5 1148.34,-189.5 1148.34,-195.5 1148.34,-195.5 1148.34,-207.5 1148.34,-207.5 1148.34,-213.5 1142.34,-219.5 1136.34,-219.5 1136.34,-219.5 1085.34,-219.5 1085.34,-219.5 1079.34,-219.5 1073.34,-213.5 1073.34,-207.5 1073.34,-207.5 1073.34,-195.5 1073.34,-195.5 1073.34,-189.5 1079.34,-183.5 1085.34,-183.5"/>
<text text-anchor="middle" x="1110.84" y="-197.8" font-family="Times,serif" font-size="14.00">0:0 &#45; 2:2</text>
</g>
<!-- c13&#45;&gt;x12 -->
<g id="edge12" class="edge">
<title>c13:e&#45;&gt;x12:w</title>
<path fill="none" stroke="black" d="M1049.03,-180.03C1054.05,-184.8 1056.67,-192.27 1061.71,-197.02"/>
<polygon fill="none" stroke="black" points="1048.53,-179.84 1041.49,-181.4 1037.34,-175.5 1044.38,-173.94 1048.53,-179.84"/>
<polygon fill="none" stroke="black" points="1062.14,-197.19 1069.18,-195.61 1073.34,-201.5 1066.3,-203.08 1062.14,-197.19"/>
</g>
<!-- x14 -->
<g id="node25" class="node">
<title>x14</title>
<path fill="none" stroke="black" d="M1085.34,-126.5C1085.34,-126.5 1136.34,-126.5 1136.34,-126.5 1142.34,-126.5 1148.34,-132.5 1148.34,-138.5 1148.34,-138.5 1148.34,-150.5 1148.34,-150.5 1148.34,-156.5 1142.34,-162.5 1136.34,-162.5 1136.34,-162.5 1085.34,-162.5 1085.34,-162.5 1079.34,-162.5 1073.34,-156.5 1073.34,-150.5 1073.34,-150.5 1073.34,-138.5 1073.34,-138.5 1073.34,-132.5 1079.34,-126.5 1085.34,-126.5"/>
<text text-anchor="middle" x="1110.84" y="-140.8" font-family="Times,serif" font-size="14.00">0:0 &#45; 2:2</text>
</g>
<!-- c13&#45;&gt;x14 -->
<g id="edge14" class="edge">
<title>c13:e&#45;&gt;x14:w</title>
<path fill="none" stroke="black" d="M1049.33,-141.39C1053.59,-142.05 1057.11,-142.95 1061.37,-143.61"/>
<polygon fill="none" stroke="black" points="1049.31,-141.39 1043.03,-144.93 1037.34,-140.5 1043.62,-136.95 1049.31,-141.39"/>
<polygon fill="none" stroke="black" points="1061.37,-143.61 1067.65,-140.07 1073.34,-144.5 1067.06,-148.05 1061.37,-143.61"/>
</g>
<!-- x10&#45;&gt;c13 -->
<g id="edge10" class="edge">
<title>x10:e&#45;&gt;c13:w</title>
<path fill="none" stroke="black" d="M547.01,-420.63C633.55,-422.27 831.49,-438.21 886.34,-387.5 917.28,-358.9 883.68,-213.37 911.13,-185.22"/>
<polygon fill="none" stroke="black" points="546.84,-420.63 540.8,-424.56 534.84,-420.5 540.88,-416.56 546.84,-420.63"/>
<polygon fill="none" stroke="black" points="911.28,-185.15 915.26,-179.14 922.34,-180.5 918.36,-186.51 911.28,-185.15"/>
</g>
<!-- x11&#45;&gt;c13 -->
<g id="edge11" class="edge">
<title>x11:e&#45;&gt;c13:w</title>
<path fill="none" stroke="black" d="M787.06,-44.14C824.05,-59.65 873.2,-138.79 910.27,-154.71"/>
<polygon fill="none" stroke="black" points="787.05,-44.14 780.32,-46.72 775.34,-41.5 782.07,-38.92 787.05,-44.14"/>
<polygon fill="none" stroke="black" points="910.65,-154.8 917.4,-152.25 922.34,-157.5 915.59,-160.05 910.65,-154.8"/>
</g>
<!-- x12&#45;&gt;n4 -->
<g id="edge25" class="edge">
<title>x12:e&#45;&gt;n4:w</title>
<path fill="none" stroke="black" d="M1149.84,-201.5C1158.08,-201.5 1154.38,-213.91 1148.84,-220 1148.62,-220.24 773.1,-276.48 772.77,-276.5 741.78,-278.82 725.42,-297.86 702.84,-276.5 700.48,-274.26 698.55,-270.87 697.62,-267.64"/>
<polygon fill="black" stroke="black" points="700.83,-269.05 701.84,-258.5 694.47,-266.11 700.83,-269.05"/>
</g>
<!-- x13&#45;&gt;c13 -->
<g id="edge13" class="edge">
<title>x13:e&#45;&gt;c13:w</title>
<path fill="none" stroke="black" d="M897.56,-168.72C904.13,-161.23 904.54,-146.83 911.09,-139.32"/>
<polygon fill="none" stroke="black" points="897.38,-168.79 893.43,-174.83 886.34,-173.5 890.29,-167.47 897.38,-168.79"/>
<polygon fill="none" stroke="black" points="911.31,-139.23 915.25,-133.19 922.34,-134.5 918.4,-140.54 911.31,-139.23"/>
</g>
<!-- x14&#45;&gt;n5 -->
<g id="edge31" class="edge">
<title>x14:e&#45;&gt;n5:w</title>
<path fill="none" stroke="black" d="M1148.34,-144.5C1184.83,-144.5 1152.03,-212.3 1174.44,-226.08"/>
<polygon fill="black" stroke="black" points="1173.8,-229.52 1184.34,-228.5 1175.46,-222.72 1173.8,-229.52"/>
</g>
<!-- c14 -->
<g id="node26" class="node">
<title>c14</title>
<polygon fill="none" stroke="black" points="922.34,-436 922.34,-505 1037.34,-505 1037.34,-436 922.34,-436"/>
<text text-anchor="middle" x="935.34" y="-489.8" font-family="Times,serif" font-size="14.00">a</text>
<polyline fill="none" stroke="black" points="922.34,-482 948.34,-482 "/>
<text text-anchor="middle" x="935.34" y="-466.8" font-family="Times,serif" font-size="14.00">b</text>
<polyline fill="none" stroke="black" points="922.34,-459 948.34,-459 "/>
<text text-anchor="middle" x="935.34" y="-443.8" font-family="Times,serif" font-size="14.00">c</text>
<polyline fill="none" stroke="black" points="948.34,-436 948.34,-505 "/>
<text text-anchor="middle" x="972.34" y="-474.3" font-family="Times,serif" font-size="14.00">s4</text>
<text text-anchor="middle" x="972.34" y="-459.3" font-family="Times,serif" font-size="14.00">subt</text>
<polyline fill="none" stroke="black" points="996.34,-436 996.34,-505 "/>
<text text-anchor="middle" x="1016.84" y="-484.3" font-family="Times,serif" font-size="14.00">bor</text>
<polyline fill="none" stroke="black" points="996.34,-471 1037.34,-471 "/>
<text text-anchor="middle" x="1016.84" y="-449.8" font-family="Times,serif" font-size="14.00">diff</text>
</g>
<!-- c14&#45;&gt;n3 -->
<g id="edge24" class="edge">
<title>c14:e&#45;&gt;n3:w</title>
<path fill="none" stroke="black" d="M1037.34,-488.5C1052.75,-488.5 1058.95,-488.5 1070.61,-488.5"/>
<polygon fill="black" stroke="black" points="1070.84,-492 1080.84,-488.5 1070.84,-485 1070.84,-492"/>
</g>
<!-- x18 -->
<g id="node30" class="node">
<title>x18</title>
<path fill="none" stroke="black" d="M1085.34,-383.5C1085.34,-383.5 1136.34,-383.5 1136.34,-383.5 1142.34,-383.5 1148.34,-389.5 1148.34,-395.5 1148.34,-395.5 1148.34,-407.5 1148.34,-407.5 1148.34,-413.5 1142.34,-419.5 1136.34,-419.5 1136.34,-419.5 1085.34,-419.5 1085.34,-419.5 1079.34,-419.5 1073.34,-413.5 1073.34,-407.5 1073.34,-407.5 1073.34,-395.5 1073.34,-395.5 1073.34,-389.5 1079.34,-383.5 1085.34,-383.5"/>
<text text-anchor="middle" x="1110.84" y="-397.8" font-family="Times,serif" font-size="14.00">0:0 &#45; 3:3</text>
</g>
<!-- c14&#45;&gt;x18 -->
<g id="edge18" class="edge">
<title>c14:e&#45;&gt;x18:w</title>
<path fill="none" stroke="black" d="M1048.69,-448.7C1057.1,-438.74 1053.59,-415.95 1062.13,-406.14"/>
<polygon fill="none" stroke="black" points="1048.39,-448.83 1044.43,-454.85 1037.34,-453.5 1041.31,-447.48 1048.39,-448.83"/>
<polygon fill="none" stroke="black" points="1062.25,-406.09 1066.27,-400.1 1073.34,-401.5 1069.33,-407.49 1062.25,-406.09"/>
</g>
<!-- x15&#45;&gt;c14 -->
<g id="edge15" class="edge">
<title>x15:e&#45;&gt;c14:w</title>
<path fill="none" stroke="black" d="M787.45,-574.34C830.18,-573.12 847.03,-564.59 886.34,-537.5 902.92,-526.07 899.89,-504.92 910.76,-496.79"/>
<polygon fill="none" stroke="black" points="787.34,-574.34 781.39,-578.42 775.34,-574.5 781.29,-570.42 787.34,-574.34"/>
<polygon fill="none" stroke="black" points="910.8,-496.78 915.48,-491.29 922.34,-493.5 917.66,-498.99 910.8,-496.78"/>
</g>
<!-- x16&#45;&gt;c14 -->
<g id="edge16" class="edge">
<title>x16:e&#45;&gt;c14:w</title>
<path fill="none" stroke="black" d="M676.55,-530.53C766.74,-530.88 798.16,-534.32 886.34,-497.5 900.04,-491.78 902.22,-479.68 910.61,-473.82"/>
<polygon fill="none" stroke="black" points="676.34,-530.52 670.33,-534.51 664.34,-530.5 670.35,-526.51 676.34,-530.52"/>
<polygon fill="none" stroke="black" points="910.79,-473.77 915.48,-468.28 922.34,-470.5 917.66,-475.98 910.79,-473.77"/>
</g>
<!-- x17&#45;&gt;c14 -->
<g id="edge17" class="edge">
<title>x17:e&#45;&gt;c14:w</title>
<path fill="none" stroke="black" d="M897.92,-364.02C915.13,-378.01 893.63,-429.61 910.59,-443.84"/>
<polygon fill="none" stroke="black" points="897.82,-363.99 890.92,-366.07 886.34,-360.5 893.24,-358.42 897.82,-363.99"/>
<polygon fill="none" stroke="black" points="910.88,-443.93 917.8,-441.9 922.34,-447.5 915.42,-449.54 910.88,-443.93"/>
</g>
<!-- x18&#45;&gt;n5 -->
<g id="edge32" class="edge">
<title>x18:e&#45;&gt;n5:w</title>
<path fill="none" stroke="black" d="M1148.34,-401.5C1223.04,-401.5 1117.15,-244.98 1174.22,-229.7"/>
<polygon fill="black" stroke="black" points="1174.82,-233.15 1184.34,-228.5 1174,-226.2 1174.82,-233.15"/>
</g>
</g>
</svg>
